PathFileType	4	(X/Y/Z)	C:\Git\research_data\Projects\torsion_deformities_healthy_kinematics\simulations\P01\pre\dynamic06_l\marker_experimental.trc
DataRate	CameraRate	NumFrames	NumMarkers	Units	OrigDataRate	OrigDataStartFrame	OrigNumFrames
200	200	7	34	mm	200	222	884
Frame#	Time	C7			T10			CLAV			STRN			RBAK			LASI			RASI			SACR			LT1			LT2			LT3			LS1			LS2			LS3			LHEE			LTOE			RT1			RT2			RT3			RS1			RS2			RS3			RHEE			RTOE			LKNE			LANK			RKNE			RANK			LAJC			LKJC			RAJC			RKJC			RHJC			LHJC		
		X1	Y1	Z1	X2	Y2	Z2	X3	Y3	Z3	X4	Y4	Z4	X5	Y5	Z5	X6	Y6	Z6	X7	Y7	Z7	X8	Y8	Z8	X9	Y9	Z9	X10	Y10	Z10	X11	Y11	Z11	X12	Y12	Z12	X13	Y13	Z13	X14	Y14	Z14	X15	Y15	Z15	X16	Y16	Z16	X17	Y17	Z17	X18	Y18	Z18	X19	Y19	Z19	X20	Y20	Z20	X21	Y21	Z21	X22	Y22	Z22	X23	Y23	Z23	X24	Y24	Z24	X25	Y25	Z25	X26	Y26	Z26	X27	Y27	Z27	X28	Y28	Z28	X29	Y29	Z29	X30	Y30	Z30	X31	Y31	Z31	X32	Y32	Z32	X33	Y33	Z33	X34	Y34	Z34	

222	1.105000	-1693.238281	1031.549316	-420.995239	-1718.929810	856.822998	-435.065125	-1577.453491	994.332275	-426.842896	-1530.830811	864.299011	-430.263000	-1710.702148	968.953857	-327.968811	-1584.226074	699.108154	-541.294495	-1593.118286	690.056213	-327.772217	-1735.996460	743.698547	-443.303650	-1570.066284	532.229126	-593.511719	-1598.896729	439.055573	-596.331116	-1461.334229	473.035767	-571.068176	-1533.898071	281.701691	-593.420715	-1621.996216	194.970367	-595.486572	-1478.889038	202.411041	-586.837769	-1570.696899	58.063404	-542.073914	-1429.400391	68.423828	-550.657837	-1669.706421	521.264954	-298.407043	-1742.506592	461.979309	-313.561584	-1605.668091	419.842804	-313.796906	-1710.144775	278.251953	-320.843842	-1815.808838	227.686584	-285.088654	-1689.257568	187.211960	-338.328400	-1843.581299	65.290390	-357.915283	-1704.760010	48.701439	-390.330933	-1527.779053	382.446106	-576.243713	-1529.622803	59.532284	-570.108826	-1692.868652	354.508240	-333.261261	-1792.514526	54.941593	-332.799103	-1521.557251	58.524307	-537.201599	-1516.669434	375.763489	-526.418213	-1797.629028	61.641102	-368.698212	-1690.019897	354.536652	-387.013672	-1660.219602	634.960253	-362.016481	-1653.743790	641.552388	-517.515472	
223	1.110000	-1686.229370	1030.598145	-421.511169	-1711.967651	855.875000	-435.897369	-1570.328125	993.159729	-427.422638	-1523.857178	863.033203	-430.504333	-1703.552734	967.892883	-328.155945	-1576.685791	697.707031	-541.846008	-1587.439209	688.803040	-327.616821	-1729.093262	742.608459	-445.033203	-1562.354980	530.530212	-593.169861	-1591.304443	437.327393	-596.114258	-1453.987427	470.976776	-569.173279	-1522.491943	281.476013	-593.546570	-1606.931030	191.289230	-597.828308	-1464.527710	204.256287	-587.007690	-1551.037231	55.587414	-544.853760	-1409.904663	71.636391	-552.225464	-1665.655396	520.913025	-298.858856	-1738.829102	462.341766	-314.538513	-1602.456543	418.792114	-313.747467	-1708.322632	278.136444	-321.288818	-1814.250366	228.500107	-285.588806	-1688.084961	186.954758	-338.654846	-1843.432007	66.187126	-358.475922	-1704.680420	48.686752	-390.422241	-1520.643799	380.692841	-574.995911	-1509.623535	59.407204	-572.551025	-1690.047363	354.357208	-333.834564	-1792.262329	55.402344	-333.072876	-1501.993896	58.352039	-539.541443	-1510.187744	374.108002	-525.016174	-1797.303345	62.100506	-368.982635	-1686.785522	354.338409	-387.563538	-1654.392422	633.578165	-362.531053	-1646.563858	640.060333	-518.491411	
224	1.115000	-1679.213501	1029.570312	-422.071625	-1704.968262	854.840454	-436.761658	-1563.178589	991.906067	-428.014343	-1516.848389	861.703979	-430.766083	-1696.421509	966.743164	-328.404083	-1569.087158	696.225769	-542.350891	-1581.691895	687.493164	-327.486450	-1722.130371	741.460876	-446.754395	-1554.667725	528.716614	-592.805176	-1583.729248	435.476013	-595.965759	-1446.744751	468.811798	-567.199829	-1511.123901	281.316010	-593.645813	-1591.823608	188.024338	-600.457947	-1450.419434	206.169861	-586.946838	-1531.810425	53.487534	-547.499268	-1390.986938	75.064140	-553.490906	-1661.609619	520.543701	-299.323914	-1735.143311	462.690826	-315.626282	-1599.288818	417.734344	-313.577515	-1706.454346	278.023529	-321.735687	-1812.715454	229.369659	-286.182281	-1686.892212	186.694626	-338.939636	-1843.275635	67.131386	-359.050018	-1704.597656	48.677197	-390.505371	-1513.582275	378.809875	-573.797119	-1490.000854	59.675076	-574.935364	-1687.249756	354.198059	-334.406921	-1792.070435	55.920681	-333.373169	-1482.915894	58.519733	-541.807983	-1503.832031	372.288208	-523.666626	-1796.997681	62.609318	-369.300476	-1683.493652	354.106384	-388.103485	-1648.496706	632.156455	-363.048910	-1639.323263	638.511848	-519.422402	
225	1.120000	-1672.190308	1028.473511	-422.677673	-1697.930054	853.726868	-437.655884	-1556.005859	990.582642	-428.620850	-1509.802002	860.324585	-431.054352	-1689.307617	965.513550	-328.715790	-1561.422607	694.682861	-542.799622	-1575.863403	686.133362	-327.388336	-1715.103882	740.268250	-448.456940	-1546.987183	526.824646	-592.428223	-1576.139648	433.540619	-595.892822	-1439.574829	466.604858	-565.175293	-1499.812622	281.212555	-593.710266	-1576.742188	185.200607	-603.318481	-1436.603394	208.105865	-586.653015	-1513.113892	51.731735	-549.958191	-1372.731323	78.632057	-554.427856	-1657.554810	520.159668	-299.807159	-1731.436157	463.028412	-316.823822	-1596.152954	416.675323	-313.288361	-1704.535278	277.920502	-322.173523	-1811.218994	230.308121	-286.883270	-1685.680298	186.433594	-339.162170	-1843.107300	68.132210	-359.631927	-1704.506836	48.674110	-390.576324	-1506.541504	376.841888	-572.663086	-1470.854370	60.281864	-577.217285	-1684.465332	354.032349	-334.973236	-1791.952637	56.514725	-333.701782	-1464.412231	58.966660	-543.964844	-1497.541504	370.351624	-522.388428	-1796.715698	63.183273	-369.654968	-1680.136353	353.836731	-388.626404	-1642.519249	630.707943	-363.576676	-1632.012522	636.928324	-520.304019	
226	1.125000	-1665.159302	1027.316162	-423.329987	-1690.851929	852.542725	-438.577728	-1548.811279	989.201599	-429.244843	-1502.716309	858.908630	-431.374756	-1682.209717	964.214111	-329.092896	-1553.686279	693.095520	-543.185791	-1569.941406	684.730530	-327.328766	-1708.011230	739.042480	-450.131012	-1539.294067	524.891113	-592.049011	-1568.504761	431.561127	-595.897461	-1432.441772	464.420410	-563.130005	-1488.582153	281.149261	-593.731201	-1561.766724	182.821579	-606.335999	-1423.119385	210.010834	-586.130859	-1495.043579	50.279915	-552.182861	-1355.219116	82.252060	-555.019348	-1653.473389	519.762695	-300.313202	-1727.690063	463.354095	-318.126709	-1593.030762	415.620758	-312.886444	-1702.554932	277.833099	-322.593567	-1809.761108	231.326477	-287.697418	-1684.445679	186.172760	-339.308716	-1842.920898	69.200256	-360.215515	-1704.402222	48.678699	-390.632019	-1499.466919	374.833801	-571.605286	-1452.284058	61.157074	-579.348755	-1681.675659	353.860504	-335.529724	-1791.912354	57.199863	-334.058716	-1446.567139	59.620556	-545.973450	-1491.251099	368.347260	-521.196045	-1796.454956	63.835880	-370.046448	-1676.701416	353.525482	-389.126221	-1636.447852	629.244272	-364.120032	-1624.623936	635.328933	-521.133588	
227	1.130000	-1658.120117	1026.107422	-424.029022	-1683.732910	851.297058	-439.524628	-1541.595703	987.775391	-429.888794	-1495.589600	857.469727	-431.732361	-1675.126099	962.855713	-329.536530	-1545.874268	691.479614	-543.506775	-1563.914917	683.291260	-327.313324	-1700.850464	737.794556	-451.767548	-1531.568237	522.951660	-591.677063	-1560.795044	429.576813	-595.976257	-1425.306274	462.320282	-561.095398	-1477.461548	281.102966	-593.699280	-1546.987793	180.867569	-609.422058	-1410.007202	211.825760	-585.392090	-1477.691406	49.085999	-554.132690	-1338.525391	85.825897	-555.257324	-1649.344238	519.353394	-300.846039	-1723.883545	463.664978	-319.526978	-1589.897339	414.575958	-312.383057	-1700.496948	277.764984	-322.989807	-1808.327393	232.433228	-288.621338	-1683.179810	185.912247	-339.373291	-1842.708618	70.347824	-360.794189	-1704.277588	48.691872	-390.670471	-1492.304321	372.829437	-570.629272	-1434.389526	62.215897	-581.280762	-1678.855713	353.681458	-336.073700	-1791.942383	57.988274	-334.441925	-1429.460327	60.400417	-547.794006	-1484.893188	366.324371	-520.097900	-1796.207642	64.578003	-370.472076	-1673.172363	353.168671	-389.598236	-1630.271880	627.775452	-364.684213	-1617.151813	633.730435	-521.910969	
228	1.135000	-1651.072144	1024.856934	-424.774780	-1676.572876	849.999695	-440.493805	-1534.360596	986.316895	-430.554993	-1488.420410	856.021362	-432.131409	-1668.055054	961.450073	-330.047089	-1537.985352	689.849182	-543.763550	-1557.773804	681.822632	-327.346771	-1693.620972	736.534668	-453.358246	-1523.789307	521.039673	-591.320679	-1552.985107	427.624542	-596.120422	-1418.128296	460.359924	-559.102478	-1466.483154	281.045135	-593.605286	-1532.503662	179.295959	-612.477051	-1397.304932	213.488678	-584.454895	-1461.142334	48.100548	-555.776428	-1322.715576	89.248756	-555.141418	-1645.143188	518.931274	-301.408875	-1719.991089	463.955658	-321.013275	-1586.722046	413.545471	-311.794067	-1698.339600	277.717438	-323.358856	-1806.889648	233.633972	-289.642761	-1681.869507	185.651123	-339.357483	-1842.460815	71.588776	-361.361145	-1704.126465	48.714081	-390.690674	-1485.004761	370.869232	-569.734985	-1417.268066	63.362816	-582.963440	-1675.973877	353.492737	-336.603577	-1792.026001	58.888538	-334.847260	-1413.165161	61.220749	-549.384644	-1478.404053	364.329803	-519.095764	-1795.961304	65.417732	-370.925934	-1669.529297	352.762482	-390.039276	-1623.982081	626.310487	-365.273104	-1609.593177	632.146884	-522.637618	
